<svg xmlns="http://www.w3.org/2000/svg" width="48" height="48" viewBox="0 0 48 48"><path d="M15.65,16.655q.075-.05,4.675-.05,4.826.025,5.3.1a.943.943,0,0,0,.25.051A7.25,7.25,0,0,1,29.15,18.08a3.835,3.835,0,0,1,1.5,2.426,7.422,7.422,0,0,1,.026.774,4.611,4.611,0,0,1-.375,1.925,4.833,4.833,0,0,1-3.575,2.3l-.4.1a22.391,22.391,0,0,0,1.651,2.55q2.675,3.951,3.875,4.625a.409.409,0,0,1,.125.026.658.658,0,0,0,.15.049.424.424,0,0,1,.3.725.491.491,0,0,1-.375.138q-.276.013-2.05.012H28.95c-.633,0-1.016-.007-1.149-.025a.347.347,0,0,1-.276-.149.075.075,0,0,1-.024-.05q-.027-.026-2.5-3.851l-2.426-3.774h-.9v3q0,3.075.024,3.175a.75.75,0,0,0,.288.612,2.8,2.8,0,0,0,1.037.187,2.715,2.715,0,0,1,.55.026q.326,0,.325.4a.382.382,0,0,1-.274.425q-.051.027-3.976.025-3.1,0-3.562-.012a.975.975,0,0,1-.563-.113.336.336,0,0,1-.149-.3.385.385,0,0,1,.3-.425h.112A2.02,2.02,0,0,0,16,32.868a2.313,2.313,0,0,1,.25-.013,2.8,2.8,0,0,0,1.037-.187.752.752,0,0,0,.287-.612V30.543q0-.687.013-1.513t.013-1.862V23.193q0-1.037-.013-1.875t-.013-1.512V18.28a.752.752,0,0,0-.287-.612,2.819,2.819,0,0,0-1.037-.188H16a1.451,1.451,0,0,1-.213-.012c-.059-.008-.1-.013-.112-.013a.369.369,0,0,1-.3-.4A.417.417,0,0,1,15.65,16.655Zm5.175,1.476a2.382,2.382,0,0,1,.3-.651H19.7c-.949,0-1.425.009-1.425.026.017.05.034.108.05.175a3.715,3.715,0,0,1,.138,1.174q.014.876.013,6.326,0,5.424-.013,6.3a3.718,3.718,0,0,1-.138,1.175l-.05.175a13.652,13.652,0,0,0,1.375.025A13.181,13.181,0,0,0,21,32.83c-.018-.05-.034-.107-.051-.175a3.782,3.782,0,0,1-.137-1.187q-.012-.887-.012-6.363Q20.8,18.282,20.825,18.131Zm5.351,1.274a2.341,2.341,0,0,0-1.038-1.474,4.278,4.278,0,0,0-2.113-.425,1.268,1.268,0,0,0-1.325.75l-.024,3.375v3.375h.675a7.724,7.724,0,0,0,2.8-.426,2,2,0,0,0,1.076-1.375,7.329,7.329,0,0,0,.174-1.774A7.344,7.344,0,0,0,26.176,19.405Zm-.325,7.1a3.11,3.11,0,0,0-.576-.776H25.2c0,.034-.208.05-.625.05a8.012,8.012,0,0,0-.8.075H23.6l4.5,6.975,1.224.025h1.2l-.274-.275a24.023,24.023,0,0,1-2.275-2.9Q26.851,28.106,25.851,26.506Zm.45-8.776a5.824,5.824,0,0,1,.974,3.6,5.782,5.782,0,0,1-.8,3.351c.233-.05.466-.109.7-.175a4.06,4.06,0,0,0,2.012-1.151,3.062,3.062,0,0,0,.637-2.049q0-2.325-2.625-3.3a2.484,2.484,0,0,0-.349-.125,2.288,2.288,0,0,0-.276-.075Z" style="fill:#404040"/></svg>